{
    "asset" : {
        "generator" : "Khronos glTF Blender I/O v0.9.36",
        "version" : "2.0"
    },
    "scene" : 0,
    "scenes" : [
        {
            "name" : "Scene",
            "nodes" : [
                0
            ]
        }
    ],
    "nodes" : [
        {
            "mesh" : 0,
            "name" : "X-Wing",
            "rotation" : [
                0.7071068286895752,
                0,
                0,
                0.7071067094802856
            ]
        }
    ],
    "materials" : [
        {
            "doubleSided" : true,
            "name" : "Material80",
            "pbrMetallicRoughness" : {
                "baseColorTexture" : {
                    "index" : 0,
                    "texCoord" : 0
                },
                "metallicFactor" : 0,
                "roughnessFactor" : 0.9057191014289856
            }
        }
    ],
    "meshes" : [
        {
            "name" : "X-Wing",
            "primitives" : [
                {
                    "attributes" : {
                        "POSITION" : 0,
                        "NORMAL" : 1,
                        "TEXCOORD_0" : 2
                    },
                    "indices" : 3,
                    "material" : 0
                }
            ]
        }
    ],
    "textures" : [
        {
            "source" : 0
        }
    ],
    "images" : [
        {
            "mimeType" : "image/png",
            "name" : "all_fly_xwing",
            "uri" : "all_fly_xwing.png"
        }
    ],
    "accessors" : [
        {
            "bufferView" : 0,
            "componentType" : 5126,
            "count" : 3518,
            "max" : [
                51.73970031738281,
                81.06629943847656,
                2.5
            ],
            "min" : [
                -51.73970031738281,
                -40.500301361083984,
                -29.94860076904297
            ],
            "type" : "VEC3"
        },
        {
            "bufferView" : 1,
            "componentType" : 5126,
            "count" : 3518,
            "type" : "VEC3"
        },
        {
            "bufferView" : 2,
            "componentType" : 5126,
            "count" : 3518,
            "type" : "VEC2"
        },
        {
            "bufferView" : 3,
            "componentType" : 5123,
            "count" : 8319,
            "type" : "SCALAR"
        }
    ],
    "bufferViews" : [
        {
            "buffer" : 0,
            "byteLength" : 42216,
            "byteOffset" : 0
        },
        {
            "buffer" : 0,
            "byteLength" : 42216,
            "byteOffset" : 42216
        },
        {
            "buffer" : 0,
            "byteLength" : 28144,
            "byteOffset" : 84432
        },
        {
            "buffer" : 0,
            "byteLength" : 16638,
            "byteOffset" : 112576
        }
    ],
    "buffers" : [
        {
            "byteLength" : 129216,
            "uri" : "XWing.gbin"
        }
    ]
}
