{
    "asset" : {
        "generator" : "Khronos glTF Blender I/O v0.9.36",
        "version" : "2.0"
    },
    "scene" : 0,
    "scenes" : [
        {
            "name" : "Scene",
            "nodes" : [
                0,
                1
            ]
        }
    ],
    "nodes" : [
        {
            "name" : "Light",
            "rotation" : [
                0.16907575726509094,
                0.7558803558349609,
                -0.27217137813568115,
                0.570947527885437
            ],
            "translation" : [
                4.076245307922363,
                5.903861999511719,
                -1.0054539442062378
            ]
        },
        {
            "mesh" : 0,
            "name" : "imp_fly_tiefighter",
            "rotation" : [
                0.7071068286895752,
                0,
                0,
                0.7071067094802856
            ]
        }
    ],
    "materials" : [
        {
            "doubleSided" : true,
            "name" : "Shape.014",
            "pbrMetallicRoughness" : {
                "baseColorTexture" : {
                    "index" : 0,
                    "texCoord" : 0
                },
                "metallicFactor" : 0,
                "roughnessFactor" : 0.925464391708374
            }
        }
    ],
    "meshes" : [
        {
            "name" : "imp_fly_tiefighter",
            "primitives" : [
                {
                    "attributes" : {
                        "POSITION" : 0,
                        "NORMAL" : 1,
                        "TEXCOORD_0" : 2
                    },
                    "indices" : 3,
                    "material" : 0
                }
            ]
        }
    ],
    "textures" : [
        {
            "source" : 0
        }
    ],
    "images" : [
        {
            "mimeType" : "image/png",
            "name" : "imp_fly_tiefighter",
            "uri" : "imp_fly_tiefighter.png"
        }
    ],
    "accessors" : [
        {
            "bufferView" : 0,
            "componentType" : 5126,
            "count" : 2415,
            "max" : [
                3.245980978012085,
                3.4959280490875244,
                0.005927000194787979
            ],
            "min" : [
                -3.245980978012085,
                -3.4959280490875244,
                -8.38211441040039
            ],
            "type" : "VEC3"
        },
        {
            "bufferView" : 1,
            "componentType" : 5126,
            "count" : 2415,
            "type" : "VEC3"
        },
        {
            "bufferView" : 2,
            "componentType" : 5126,
            "count" : 2415,
            "type" : "VEC2"
        },
        {
            "bufferView" : 3,
            "componentType" : 5123,
            "count" : 5889,
            "type" : "SCALAR"
        }
    ],
    "bufferViews" : [
        {
            "buffer" : 0,
            "byteLength" : 28980,
            "byteOffset" : 0
        },
        {
            "buffer" : 0,
            "byteLength" : 28980,
            "byteOffset" : 28980
        },
        {
            "buffer" : 0,
            "byteLength" : 19320,
            "byteOffset" : 57960
        },
        {
            "buffer" : 0,
            "byteLength" : 11778,
            "byteOffset" : 77280
        }
    ],
    "buffers" : [
        {
            "byteLength" : 89060,
            "uri" : "TIEfighter.gbin"
        }
    ]
}
