{
    "asset" : {
        "generator" : "Khronos glTF Blender I/O v0.9.36",
        "version" : "2.0"
    },
    "scene" : 0,
    "scenes" : [
        {
            "name" : "Scene",
            "nodes" : [
                0,
                1,
                2
            ]
        }
    ],
    "nodes" : [
        {
            "name" : "Light",
            "rotation" : [
                0.16907575726509094,
                0.7558803558349609,
                -0.27217137813568115,
                0.570947527885437
            ],
            "translation" : [
                4.076245307922363,
                5.903861999511719,
                -1.0054539442062378
            ]
        },
        {
            "name" : "Camera",
            "rotation" : [
                0.483536034822464,
                0.33687159419059753,
                -0.20870360732078552,
                0.7804827094078064
            ],
            "translation" : [
                7.358891487121582,
                4.958309173583984,
                6.925790786743164
            ]
        },
        {
            "mesh" : 0,
            "name" : "cis_cap_fedcoreship",
            "rotation" : [
                0.7168001532554626,
                0.000984435435384512,
                -0.002478999551385641,
                0.6972736120223999
            ]
        }
    ],
    "materials" : [
        {
            "doubleSided" : true,
            "name" : "Shape.020",
            "pbrMetallicRoughness" : {
                "baseColorTexture" : {
                    "index" : 0,
                    "texCoord" : 0
                },
                "metallicFactor" : 0,
                "roughnessFactor" : 0.925464391708374
            }
        }
    ],
    "meshes" : [
        {
            "name" : "cis_cap_fedcoreship",
            "primitives" : [
                {
                    "attributes" : {
                        "POSITION" : 0,
                        "NORMAL" : 1,
                        "TEXCOORD_0" : 2
                    },
                    "indices" : 3,
                    "material" : 0
                }
            ]
        }
    ],
    "textures" : [
        {
            "source" : 0
        }
    ],
    "images" : [
        {
            "mimeType" : "image/png",
            "name" : "cis_cap_fedcoreship",
            "uri" : "cis_cap_fedcoreship.png"
        }
    ],
    "accessors" : [
        {
            "bufferView" : 0,
            "componentType" : 5126,
            "count" : 3546,
            "max" : [
                5.9796929359436035,
                7.529661178588867,
                1.5
            ],
            "min" : [
                -5.9796929359436035,
                -5.992307186126709,
                -2.264235019683838
            ],
            "type" : "VEC3"
        },
        {
            "bufferView" : 1,
            "componentType" : 5126,
            "count" : 3546,
            "type" : "VEC3"
        },
        {
            "bufferView" : 2,
            "componentType" : 5126,
            "count" : 3546,
            "type" : "VEC2"
        },
        {
            "bufferView" : 3,
            "componentType" : 5123,
            "count" : 7362,
            "type" : "SCALAR"
        }
    ],
    "bufferViews" : [
        {
            "buffer" : 0,
            "byteLength" : 42552,
            "byteOffset" : 0
        },
        {
            "buffer" : 0,
            "byteLength" : 42552,
            "byteOffset" : 42552
        },
        {
            "buffer" : 0,
            "byteLength" : 28368,
            "byteOffset" : 85104
        },
        {
            "buffer" : 0,
            "byteLength" : 14724,
            "byteOffset" : 113472
        }
    ],
    "buffers" : [
        {
            "byteLength" : 128196,
            "uri" : "Core.gbin"
        }
    ]
}
